<mxfile host="app.diagrams.net" modified="2022-05-12T03:37:27.185Z" agent="5.0 (Windows NT 10.0; Win64; x64) AppleWebKit/537.36 (KHTML, like Gecko) Chrome/101.0.4951.54 Safari/537.36" etag="3xrOR4URy31gc1_N91eW" version="18.0.3" type="github">
  <diagram id="C5RBs43oDa-KdzZeNtuy" name="Page-1">
    <mxGraphModel dx="4355" dy="1162" grid="1" gridSize="10" guides="1" tooltips="1" connect="1" arrows="1" fold="1" page="1" pageScale="1" pageWidth="827" pageHeight="1169" math="0" shadow="0">
      <root>
        <mxCell id="WIyWlLk6GJQsqaUBKTNV-0" />
        <mxCell id="WIyWlLk6GJQsqaUBKTNV-1" parent="WIyWlLk6GJQsqaUBKTNV-0" />
        <mxCell id="hZn3tJ6vw7ngV-sRrfr--11" value="Model" style="shape=umlFrame;whiteSpace=wrap;html=1;width=60;height=40;" parent="WIyWlLk6GJQsqaUBKTNV-1" vertex="1">
          <mxGeometry x="170" y="650" width="330" height="330" as="geometry" />
        </mxCell>
        <mxCell id="hZn3tJ6vw7ngV-sRrfr--44" value="" style="sketch=0;outlineConnect=0;fontColor=#232F3E;gradientColor=none;fillColor=#000000;strokeColor=none;dashed=0;verticalLabelPosition=bottom;verticalAlign=top;align=center;html=1;fontSize=12;fontStyle=0;aspect=fixed;pointerEvents=1;shape=mxgraph.aws4.rds_sql_server_instance;" parent="WIyWlLk6GJQsqaUBKTNV-1" vertex="1">
          <mxGeometry x="-60" y="746" width="108" height="108" as="geometry" />
        </mxCell>
        <mxCell id="ZVCv-JxzfMziUGyoKQ7P-0" value="View&lt;span style=&quot;color: rgba(0, 0, 0, 0); font-family: monospace; font-size: 0px; text-align: start;&quot;&gt;%3CmxGraphModel%3E%3Croot%3E%3CmxCell%20id%3D%220%22%2F%3E%3CmxCell%20id%3D%221%22%20parent%3D%220%22%2F%3E%3CmxCell%20id%3D%222%22%20value%3D%22Model%22%20style%3D%22shape%3DumlFrame%3BwhiteSpace%3Dwrap%3Bhtml%3D1%3Bwidth%3D60%3Bheight%3D40%3B%22%20vertex%3D%221%22%20parent%3D%221%22%3E%3CmxGeometry%20x%3D%22-105%22%20y%3D%22280%22%20width%3D%22780%22%20height%3D%22410%22%20as%3D%22geometry%22%2F%3E%3C%2FmxCell%3E%3C%2Froot%3E%3C%2FmxGraphModel%3E&lt;/span&gt;" style="shape=umlFrame;whiteSpace=wrap;html=1;width=60;height=40;" vertex="1" parent="WIyWlLk6GJQsqaUBKTNV-1">
          <mxGeometry x="660" y="650" width="630" height="460" as="geometry" />
        </mxCell>
        <mxCell id="ZVCv-JxzfMziUGyoKQ7P-1" value="Controller" style="shape=umlFrame;whiteSpace=wrap;html=1;width=60;height=40;" vertex="1" parent="WIyWlLk6GJQsqaUBKTNV-1">
          <mxGeometry x="210" y="110" width="780" height="410" as="geometry" />
        </mxCell>
        <mxCell id="ZVCv-JxzfMziUGyoKQ7P-5" value="UserModel" style="rounded=1;whiteSpace=wrap;html=1;" vertex="1" parent="WIyWlLk6GJQsqaUBKTNV-1">
          <mxGeometry x="275" y="705" width="120" height="60" as="geometry" />
        </mxCell>
        <mxCell id="ZVCv-JxzfMziUGyoKQ7P-6" value="Processamento de ofertas diárias" style="rounded=1;whiteSpace=wrap;html=1;" vertex="1" parent="WIyWlLk6GJQsqaUBKTNV-1">
          <mxGeometry x="267.5" y="865" width="135" height="60" as="geometry" />
        </mxCell>
        <mxCell id="ZVCv-JxzfMziUGyoKQ7P-11" value="" style="html=1;shadow=0;dashed=0;align=center;verticalAlign=middle;shape=mxgraph.arrows2.twoWayArrow;dy=0.6;dx=35;" vertex="1" parent="WIyWlLk6GJQsqaUBKTNV-1">
          <mxGeometry x="60" y="785" width="102" height="30" as="geometry" />
        </mxCell>
        <mxCell id="ZVCv-JxzfMziUGyoKQ7P-13" value="UserView" style="ellipse;whiteSpace=wrap;html=1;" vertex="1" parent="WIyWlLk6GJQsqaUBKTNV-1">
          <mxGeometry x="940" y="820" width="120" height="80" as="geometry" />
        </mxCell>
        <mxCell id="ZVCv-JxzfMziUGyoKQ7P-14" value="Consultar resultado" style="rounded=1;whiteSpace=wrap;html=1;" vertex="1" parent="WIyWlLk6GJQsqaUBKTNV-1">
          <mxGeometry x="860" y="700" width="120" height="60" as="geometry" />
        </mxCell>
        <mxCell id="ZVCv-JxzfMziUGyoKQ7P-15" value="Consultar dados&lt;span style=&quot;color: rgba(0, 0, 0, 0); font-family: monospace; font-size: 0px; text-align: start;&quot;&gt;%3CmxGraphModel%3E%3Croot%3E%3CmxCell%20id%3D%220%22%2F%3E%3CmxCell%20id%3D%221%22%20parent%3D%220%22%2F%3E%3CmxCell%20id%3D%222%22%20value%3D%22Consultar%20resultado%22%20style%3D%22rounded%3D1%3BwhiteSpace%3Dwrap%3Bhtml%3D1%3B%22%20vertex%3D%221%22%20parent%3D%221%22%3E%3CmxGeometry%20x%3D%22827%22%20y%3D%22580%22%20width%3D%22120%22%20height%3D%2260%22%20as%3D%22geometry%22%2F%3E%3C%2FmxCell%3E%3C%2Froot%3E%3C%2FmxGraphModel%3E&lt;/span&gt;" style="rounded=1;whiteSpace=wrap;html=1;" vertex="1" parent="WIyWlLk6GJQsqaUBKTNV-1">
          <mxGeometry x="740" y="825" width="120" height="60" as="geometry" />
        </mxCell>
        <mxCell id="ZVCv-JxzfMziUGyoKQ7P-16" value="Consultar 10 ofertas mais recentes" style="rounded=1;whiteSpace=wrap;html=1;" vertex="1" parent="WIyWlLk6GJQsqaUBKTNV-1">
          <mxGeometry x="1035" y="700" width="120" height="60" as="geometry" />
        </mxCell>
        <mxCell id="ZVCv-JxzfMziUGyoKQ7P-17" value="Consultar ofertas publicadas" style="rounded=1;whiteSpace=wrap;html=1;" vertex="1" parent="WIyWlLk6GJQsqaUBKTNV-1">
          <mxGeometry x="1155" y="830" width="120" height="60" as="geometry" />
        </mxCell>
        <mxCell id="ZVCv-JxzfMziUGyoKQ7P-18" value="Consultar ofertas disponiveis" style="rounded=1;whiteSpace=wrap;html=1;" vertex="1" parent="WIyWlLk6GJQsqaUBKTNV-1">
          <mxGeometry x="1035" y="955" width="120" height="60" as="geometry" />
        </mxCell>
        <mxCell id="ZVCv-JxzfMziUGyoKQ7P-19" value="Consultar operação" style="rounded=1;whiteSpace=wrap;html=1;" vertex="1" parent="WIyWlLk6GJQsqaUBKTNV-1">
          <mxGeometry x="860" y="955" width="120" height="60" as="geometry" />
        </mxCell>
        <mxCell id="ZVCv-JxzfMziUGyoKQ7P-32" value="" style="edgeStyle=orthogonalEdgeStyle;rounded=0;orthogonalLoop=1;jettySize=auto;html=1;" edge="1" parent="WIyWlLk6GJQsqaUBKTNV-1" source="ZVCv-JxzfMziUGyoKQ7P-20" target="ZVCv-JxzfMziUGyoKQ7P-27">
          <mxGeometry relative="1" as="geometry" />
        </mxCell>
        <mxCell id="ZVCv-JxzfMziUGyoKQ7P-20" value="UserController" style="ellipse;whiteSpace=wrap;html=1;" vertex="1" parent="WIyWlLk6GJQsqaUBKTNV-1">
          <mxGeometry x="540" y="255" width="120" height="80" as="geometry" />
        </mxCell>
        <mxCell id="ZVCv-JxzfMziUGyoKQ7P-21" value="Bloquear conta" style="rounded=1;whiteSpace=wrap;html=1;" vertex="1" parent="WIyWlLk6GJQsqaUBKTNV-1">
          <mxGeometry x="540" y="150" width="120" height="60" as="geometry" />
        </mxCell>
        <mxCell id="ZVCv-JxzfMziUGyoKQ7P-22" value="Desbloquear conta" style="rounded=1;whiteSpace=wrap;html=1;" vertex="1" parent="WIyWlLk6GJQsqaUBKTNV-1">
          <mxGeometry x="720" y="150" width="120" height="60" as="geometry" />
        </mxCell>
        <mxCell id="ZVCv-JxzfMziUGyoKQ7P-23" value="Cadastrar usuario" style="rounded=1;whiteSpace=wrap;html=1;" vertex="1" parent="WIyWlLk6GJQsqaUBKTNV-1">
          <mxGeometry x="720" y="265" width="120" height="60" as="geometry" />
        </mxCell>
        <mxCell id="ZVCv-JxzfMziUGyoKQ7P-24" value="Publicação de oferta" style="rounded=1;whiteSpace=wrap;html=1;" vertex="1" parent="WIyWlLk6GJQsqaUBKTNV-1">
          <mxGeometry x="360" y="150" width="120" height="60" as="geometry" />
        </mxCell>
        <mxCell id="ZVCv-JxzfMziUGyoKQ7P-25" value="Alteração de dados do usuário" style="rounded=1;whiteSpace=wrap;html=1;" vertex="1" parent="WIyWlLk6GJQsqaUBKTNV-1">
          <mxGeometry x="540" y="380" width="120" height="60" as="geometry" />
        </mxCell>
        <mxCell id="ZVCv-JxzfMziUGyoKQ7P-26" value="Auntenticação de usuario" style="rounded=1;whiteSpace=wrap;html=1;" vertex="1" parent="WIyWlLk6GJQsqaUBKTNV-1">
          <mxGeometry x="720" y="380" width="120" height="60" as="geometry" />
        </mxCell>
        <mxCell id="ZVCv-JxzfMziUGyoKQ7P-27" value="Renovação de oferta" style="rounded=1;whiteSpace=wrap;html=1;" vertex="1" parent="WIyWlLk6GJQsqaUBKTNV-1">
          <mxGeometry x="360" y="265" width="120" height="60" as="geometry" />
        </mxCell>
        <mxCell id="ZVCv-JxzfMziUGyoKQ7P-28" value="Cancelamento de oferta" style="rounded=1;whiteSpace=wrap;html=1;" vertex="1" parent="WIyWlLk6GJQsqaUBKTNV-1">
          <mxGeometry x="360" y="380" width="120" height="60" as="geometry" />
        </mxCell>
        <mxCell id="ZVCv-JxzfMziUGyoKQ7P-30" value="" style="endArrow=none;dashed=1;html=1;rounded=0;" edge="1" parent="WIyWlLk6GJQsqaUBKTNV-1" source="ZVCv-JxzfMziUGyoKQ7P-24" target="ZVCv-JxzfMziUGyoKQ7P-20">
          <mxGeometry width="50" height="50" relative="1" as="geometry">
            <mxPoint x="470" y="230" as="sourcePoint" />
            <mxPoint x="520" y="180" as="targetPoint" />
          </mxGeometry>
        </mxCell>
        <mxCell id="ZVCv-JxzfMziUGyoKQ7P-31" value="" style="endArrow=none;dashed=1;html=1;rounded=0;exitX=1;exitY=0.5;exitDx=0;exitDy=0;entryX=0;entryY=0.5;entryDx=0;entryDy=0;" edge="1" parent="WIyWlLk6GJQsqaUBKTNV-1" source="ZVCv-JxzfMziUGyoKQ7P-27" target="ZVCv-JxzfMziUGyoKQ7P-20">
          <mxGeometry width="50" height="50" relative="1" as="geometry">
            <mxPoint x="490.0020610644444" y="220" as="sourcePoint" />
            <mxPoint x="560" y="280" as="targetPoint" />
          </mxGeometry>
        </mxCell>
        <mxCell id="ZVCv-JxzfMziUGyoKQ7P-33" value="" style="endArrow=none;dashed=1;html=1;rounded=0;entryX=0;entryY=1;entryDx=0;entryDy=0;exitX=1;exitY=0.5;exitDx=0;exitDy=0;" edge="1" parent="WIyWlLk6GJQsqaUBKTNV-1" source="ZVCv-JxzfMziUGyoKQ7P-28" target="ZVCv-JxzfMziUGyoKQ7P-20">
          <mxGeometry width="50" height="50" relative="1" as="geometry">
            <mxPoint x="486.84206106444435" y="230" as="sourcePoint" />
            <mxPoint x="576.5213248238415" y="287.43508828701033" as="targetPoint" />
          </mxGeometry>
        </mxCell>
        <mxCell id="ZVCv-JxzfMziUGyoKQ7P-34" value="" style="endArrow=none;dashed=1;html=1;rounded=0;entryX=0.5;entryY=1;entryDx=0;entryDy=0;" edge="1" parent="WIyWlLk6GJQsqaUBKTNV-1" source="ZVCv-JxzfMziUGyoKQ7P-25" target="ZVCv-JxzfMziUGyoKQ7P-20">
          <mxGeometry width="50" height="50" relative="1" as="geometry">
            <mxPoint x="496.84206106444435" y="240" as="sourcePoint" />
            <mxPoint x="586.5213248238415" y="297.43508828701033" as="targetPoint" />
          </mxGeometry>
        </mxCell>
        <mxCell id="ZVCv-JxzfMziUGyoKQ7P-35" value="" style="endArrow=none;dashed=1;html=1;rounded=0;entryX=1;entryY=1;entryDx=0;entryDy=0;" edge="1" parent="WIyWlLk6GJQsqaUBKTNV-1" source="ZVCv-JxzfMziUGyoKQ7P-26" target="ZVCv-JxzfMziUGyoKQ7P-20">
          <mxGeometry width="50" height="50" relative="1" as="geometry">
            <mxPoint x="506.84206106444435" y="250" as="sourcePoint" />
            <mxPoint x="596.5213248238415" y="307.43508828701033" as="targetPoint" />
          </mxGeometry>
        </mxCell>
        <mxCell id="ZVCv-JxzfMziUGyoKQ7P-36" value="" style="endArrow=none;dashed=1;html=1;rounded=0;entryX=1;entryY=0.5;entryDx=0;entryDy=0;" edge="1" parent="WIyWlLk6GJQsqaUBKTNV-1" source="ZVCv-JxzfMziUGyoKQ7P-23" target="ZVCv-JxzfMziUGyoKQ7P-20">
          <mxGeometry width="50" height="50" relative="1" as="geometry">
            <mxPoint x="516.8420610644444" y="260" as="sourcePoint" />
            <mxPoint x="606.5213248238415" y="317.43508828701033" as="targetPoint" />
          </mxGeometry>
        </mxCell>
        <mxCell id="ZVCv-JxzfMziUGyoKQ7P-37" value="" style="endArrow=none;dashed=1;html=1;rounded=0;entryX=0.036;entryY=0.974;entryDx=0;entryDy=0;entryPerimeter=0;exitX=1;exitY=0;exitDx=0;exitDy=0;" edge="1" parent="WIyWlLk6GJQsqaUBKTNV-1" source="ZVCv-JxzfMziUGyoKQ7P-20" target="ZVCv-JxzfMziUGyoKQ7P-22">
          <mxGeometry width="50" height="50" relative="1" as="geometry">
            <mxPoint x="526.8420610644444" y="270" as="sourcePoint" />
            <mxPoint x="616.5213248238415" y="327.43508828701033" as="targetPoint" />
          </mxGeometry>
        </mxCell>
        <mxCell id="ZVCv-JxzfMziUGyoKQ7P-38" value="" style="endArrow=none;dashed=1;html=1;rounded=0;exitX=0.5;exitY=1;exitDx=0;exitDy=0;entryX=0.5;entryY=0;entryDx=0;entryDy=0;" edge="1" parent="WIyWlLk6GJQsqaUBKTNV-1" source="ZVCv-JxzfMziUGyoKQ7P-21" target="ZVCv-JxzfMziUGyoKQ7P-20">
          <mxGeometry width="50" height="50" relative="1" as="geometry">
            <mxPoint x="536.8420610644444" y="280" as="sourcePoint" />
            <mxPoint x="626.5213248238415" y="337.43508828701033" as="targetPoint" />
          </mxGeometry>
        </mxCell>
        <mxCell id="ZVCv-JxzfMziUGyoKQ7P-40" value="" style="endArrow=none;dashed=1;html=1;rounded=0;" edge="1" parent="WIyWlLk6GJQsqaUBKTNV-1" source="ZVCv-JxzfMziUGyoKQ7P-13" target="ZVCv-JxzfMziUGyoKQ7P-14">
          <mxGeometry width="50" height="50" relative="1" as="geometry">
            <mxPoint x="940" y="800" as="sourcePoint" />
            <mxPoint x="990" y="750" as="targetPoint" />
          </mxGeometry>
        </mxCell>
        <mxCell id="ZVCv-JxzfMziUGyoKQ7P-41" value="" style="endArrow=none;dashed=1;html=1;rounded=0;exitX=0;exitY=0.5;exitDx=0;exitDy=0;entryX=1;entryY=0.5;entryDx=0;entryDy=0;" edge="1" parent="WIyWlLk6GJQsqaUBKTNV-1" source="ZVCv-JxzfMziUGyoKQ7P-13" target="ZVCv-JxzfMziUGyoKQ7P-15">
          <mxGeometry width="50" height="50" relative="1" as="geometry">
            <mxPoint x="987.4505235333686" y="832.932367452112" as="sourcePoint" />
            <mxPoint x="948.4615384615386" y="770" as="targetPoint" />
          </mxGeometry>
        </mxCell>
        <mxCell id="ZVCv-JxzfMziUGyoKQ7P-42" value="" style="endArrow=none;dashed=1;html=1;rounded=0;exitX=0.5;exitY=0;exitDx=0;exitDy=0;entryX=0;entryY=1;entryDx=0;entryDy=0;" edge="1" parent="WIyWlLk6GJQsqaUBKTNV-1" source="ZVCv-JxzfMziUGyoKQ7P-19" target="ZVCv-JxzfMziUGyoKQ7P-13">
          <mxGeometry width="50" height="50" relative="1" as="geometry">
            <mxPoint x="997.4505235333686" y="842.932367452112" as="sourcePoint" />
            <mxPoint x="958.4615384615386" y="780" as="targetPoint" />
          </mxGeometry>
        </mxCell>
        <mxCell id="ZVCv-JxzfMziUGyoKQ7P-43" value="" style="endArrow=none;dashed=1;html=1;rounded=0;" edge="1" parent="WIyWlLk6GJQsqaUBKTNV-1" source="ZVCv-JxzfMziUGyoKQ7P-13" target="ZVCv-JxzfMziUGyoKQ7P-16">
          <mxGeometry width="50" height="50" relative="1" as="geometry">
            <mxPoint x="1007.4505235333686" y="852.932367452112" as="sourcePoint" />
            <mxPoint x="968.4615384615386" y="790" as="targetPoint" />
          </mxGeometry>
        </mxCell>
        <mxCell id="ZVCv-JxzfMziUGyoKQ7P-44" value="" style="endArrow=none;dashed=1;html=1;rounded=0;exitX=0.805;exitY=0.895;exitDx=0;exitDy=0;exitPerimeter=0;entryX=0.25;entryY=0;entryDx=0;entryDy=0;" edge="1" parent="WIyWlLk6GJQsqaUBKTNV-1" source="ZVCv-JxzfMziUGyoKQ7P-13" target="ZVCv-JxzfMziUGyoKQ7P-18">
          <mxGeometry width="50" height="50" relative="1" as="geometry">
            <mxPoint x="1017.4505235333686" y="862.932367452112" as="sourcePoint" />
            <mxPoint x="978.4615384615386" y="800" as="targetPoint" />
          </mxGeometry>
        </mxCell>
        <mxCell id="ZVCv-JxzfMziUGyoKQ7P-45" value="" style="endArrow=none;dashed=1;html=1;rounded=0;exitX=0;exitY=0.5;exitDx=0;exitDy=0;entryX=1;entryY=0.5;entryDx=0;entryDy=0;" edge="1" parent="WIyWlLk6GJQsqaUBKTNV-1" source="ZVCv-JxzfMziUGyoKQ7P-17" target="ZVCv-JxzfMziUGyoKQ7P-13">
          <mxGeometry width="50" height="50" relative="1" as="geometry">
            <mxPoint x="1027.4505235333686" y="872.932367452112" as="sourcePoint" />
            <mxPoint x="988.4615384615386" y="810" as="targetPoint" />
          </mxGeometry>
        </mxCell>
        <mxCell id="ZVCv-JxzfMziUGyoKQ7P-46" value="" style="endArrow=none;dashed=1;html=1;rounded=0;" edge="1" parent="WIyWlLk6GJQsqaUBKTNV-1" source="ZVCv-JxzfMziUGyoKQ7P-6" target="ZVCv-JxzfMziUGyoKQ7P-5">
          <mxGeometry width="50" height="50" relative="1" as="geometry">
            <mxPoint x="320" y="835" as="sourcePoint" />
            <mxPoint x="370" y="785" as="targetPoint" />
          </mxGeometry>
        </mxCell>
        <mxCell id="ZVCv-JxzfMziUGyoKQ7P-51" value="" style="endArrow=classic;html=1;rounded=0;entryX=0.732;entryY=0;entryDx=0;entryDy=0;entryPerimeter=0;exitX=1.002;exitY=0.502;exitDx=0;exitDy=0;exitPerimeter=0;" edge="1" parent="WIyWlLk6GJQsqaUBKTNV-1" source="ZVCv-JxzfMziUGyoKQ7P-1" target="ZVCv-JxzfMziUGyoKQ7P-0">
          <mxGeometry width="50" height="50" relative="1" as="geometry">
            <mxPoint x="1080" y="520" as="sourcePoint" />
            <mxPoint x="1130" y="470" as="targetPoint" />
            <Array as="points">
              <mxPoint x="1120" y="316" />
            </Array>
          </mxGeometry>
        </mxCell>
        <mxCell id="ZVCv-JxzfMziUGyoKQ7P-52" value="" style="endArrow=classic;html=1;rounded=0;entryX=0.262;entryY=1.001;entryDx=0;entryDy=0;entryPerimeter=0;" edge="1" parent="WIyWlLk6GJQsqaUBKTNV-1" target="ZVCv-JxzfMziUGyoKQ7P-1">
          <mxGeometry width="50" height="50" relative="1" as="geometry">
            <mxPoint x="414" y="650" as="sourcePoint" />
            <mxPoint x="450" y="570" as="targetPoint" />
          </mxGeometry>
        </mxCell>
        <mxCell id="ZVCv-JxzfMziUGyoKQ7P-53" value="" style="endArrow=classic;html=1;rounded=0;entryX=0.505;entryY=0.005;entryDx=0;entryDy=0;entryPerimeter=0;exitX=0.164;exitY=0.997;exitDx=0;exitDy=0;exitPerimeter=0;" edge="1" parent="WIyWlLk6GJQsqaUBKTNV-1" source="ZVCv-JxzfMziUGyoKQ7P-1" target="hZn3tJ6vw7ngV-sRrfr--11">
          <mxGeometry width="50" height="50" relative="1" as="geometry">
            <mxPoint x="300" y="600" as="sourcePoint" />
            <mxPoint x="350" y="550" as="targetPoint" />
          </mxGeometry>
        </mxCell>
        <mxCell id="ZVCv-JxzfMziUGyoKQ7P-54" value="Send Data" style="text;html=1;strokeColor=none;fillColor=none;align=center;verticalAlign=middle;whiteSpace=wrap;rounded=0;" vertex="1" parent="WIyWlLk6GJQsqaUBKTNV-1">
          <mxGeometry x="1070" y="280" width="60" height="30" as="geometry" />
        </mxCell>
        <mxCell id="ZVCv-JxzfMziUGyoKQ7P-55" value="Data&lt;span style=&quot;color: rgba(0, 0, 0, 0); font-family: monospace; font-size: 0px; text-align: start;&quot;&gt;%3CmxGraphModel%3E%3Croot%3E%3CmxCell%20id%3D%220%22%2F%3E%3CmxCell%20id%3D%221%22%20parent%3D%220%22%2F%3E%3CmxCell%20id%3D%222%22%20value%3D%22Send%20Data%22%20style%3D%22text%3Bhtml%3D1%3BstrokeColor%3Dnone%3BfillColor%3Dnone%3Balign%3Dcenter%3BverticalAlign%3Dmiddle%3BwhiteSpace%3Dwrap%3Brounded%3D0%3B%22%20vertex%3D%221%22%20parent%3D%221%22%3E%3CmxGeometry%20x%3D%221070%22%20y%3D%22280%22%20width%3D%2260%22%20height%3D%2230%22%20as%3D%22geometry%22%2F%3E%3C%2FmxCell%3E%3C%2Froot%3E%3C%2FmxGraphModel%3E&lt;/span&gt;" style="text;html=1;strokeColor=none;fillColor=none;align=center;verticalAlign=middle;whiteSpace=wrap;rounded=0;" vertex="1" parent="WIyWlLk6GJQsqaUBKTNV-1">
          <mxGeometry x="414" y="570" width="60" height="30" as="geometry" />
        </mxCell>
        <mxCell id="ZVCv-JxzfMziUGyoKQ7P-56" value="Demand" style="text;html=1;strokeColor=none;fillColor=none;align=center;verticalAlign=middle;whiteSpace=wrap;rounded=0;" vertex="1" parent="WIyWlLk6GJQsqaUBKTNV-1">
          <mxGeometry x="260" y="570" width="60" height="30" as="geometry" />
        </mxCell>
      </root>
    </mxGraphModel>
  </diagram>
</mxfile>
